<?xml version="1.0" standalone="no"?><!DOCTYPE svg PUBLIC "-//W3C//DTD SVG 1.1//EN" "http://www.w3.org/Graphics/SVG/1.1/DTD/svg11.dtd"><svg t="1550647364095" class="icon" style="" viewBox="0 0 1024 1024" version="1.1" xmlns="http://www.w3.org/2000/svg" p-id="15832" xmlns:xlink="http://www.w3.org/1999/xlink" width="64" height="64"><defs><style type="text/css"></style></defs><path d="M512.744176 25.309194c-267.924871 0-485.888831 217.971185-485.888831 485.888831 0 267.903196 217.971185 485.859931 485.888831 485.859931s485.888831-217.956735 485.888831-485.859931C998.640231 243.280378 780.669047 25.309194 512.744176 25.309194zM512.744176 969.848585c-252.91131 0-458.679461-205.753701-458.679461-458.643336 0-252.918535 205.760926-458.679461 458.679461-458.679461s458.679461 205.760926 458.679461 458.679461C971.423636 764.10211 765.662711 969.848585 512.744176 969.848585z" p-id="15833" fill="#ff874B"></path><path d="M698.462937 622.419756c-21.097015-15.829987-37.866253-22.578142-56.094941-22.578142-26.515769 0-49.520186 14.926861-83.087561 42.829831-6.36523 5.707754-10.317308 5.707754-11.617809 5.707754-8.467706 0-19.550864-9.919932-23.596867-15.223086l-3.706428-3.995428c-3.757003-3.316277-92.487293-81.52696-130.07177-110.983306-3.785903-2.983927-3.865378-4.645678-3.908728-5.534354-0.310675-6.647005 6.65423-17.845763 13.864785-25.807719 11.126508-5.743879 32.620899-20.143315 40.496155-48.27026 8.915657-31.797248-2.940577-68.57975-35.243576-109.321555-26.81922-33.726325-54.91004-50.827912-83.492161-50.827912-35.380851 0-62.380696 26.985395-76.158781 52.713639-109.90678 135.98905 89.590066 329.900967 98.223947 338.173598 6.42303 6.069004 158.675566 148.770084 279.390955 148.770084 20.547915 0 39.477429-4.046003 56.261116-12.015184 52.258463-20.663515 79.814633-46.666309 84.221887-79.467833C768.502138 692.755182 747.065547 658.667607 698.462937 622.419756zM736.97944 722.955705c-2.991152 22.245791-25.128568 41.21143-67.6694 57.951767l-0.910351 0.397375c-13.185635 6.33633-28.307571 9.551457-44.932308 9.551457-88.022239 0-209.012178-92.443943-260.627616-141.270528-7.846356-7.521231-191.11584-185.494786-95.08107-302.265321l1.567826-2.369802c3.410202-6.56753 21.985691-39.325704 52.684739-39.325704 19.868765 0 40.79238 13.64081 62.171171 40.539505 26.566344 33.509575 36.782502 62.127821 30.359472 85.059987-5.483779 19.572539-21.660566 29.044521-28.365371 32.216299l-2.246977 1.054851-1.726776 1.791801c-5.649954 5.852254-24.008693 26.573569-23.011642 47.656135 0.469625 9.912707 5.259804 18.524914 14.269385 25.627094 35.944401 28.155846 120.144613 102.2844 128.373894 109.53108L502.889268 650.250476c3.186227 3.966528 21.436591 25.345319 44.773358 25.345319 10.396783 0 20.42509-4.255528 29.398547-12.318634 28.271446-23.488492 47.056459-36.218952 65.306823-36.218952 11.870684 0 23.755817 5.122529 39.795329 17.159388C721.611854 673.630593 740.057292 700.124688 736.97944 722.955705z" p-id="15834" fill="#ff874B"></path><path d="M706.728343 509.044973c-5.238129-145.229831-145.063656-188.442588-150.930361-190.183814-10.454583-3.179002-21.588316-4.862429-32.201849-4.862429-33.538475 0-57.128117 15.634911-61.59317 40.828505-4.183278 23.950893 3.381302 39.029479 10.461808 47.453835 13.48186 16.039512 32.852099 18.438214 43.205532 18.438214 2.333677 0 4.046003-0.122825 4.428928-0.15895 53.667339-2.680477 78.362407 48.689311 81.31021 55.314641 0.01445 1.307726-0.01445 3.056177-0.021675 4.573428-0.2023 21.068115-0.67915 70.414902 40.113229 81.245185 4.320553 1.148776 8.684456 1.734001 12.983335 1.734001 27.939095 0 46.008834-23.698017 51.528738-47.179285l0.838101-3.561928L706.728343 509.044973zM654.491554 536.218218c-1.929076 0-3.937628-0.267325-5.975079-0.816426-17.910788-4.754053-20.15054-29.095096-19.90489-54.69329 0.050575-5.505454 0.01445-7.427305-0.15895-8.944557l-0.296225-1.676201c-2.485402-10.078882-34.74505-76.845156-103.982276-76.845156-1.799026 0-3.612503 0.050575-5.895604 0.1734-0.440725 0.036125-1.351076 0.093925-2.593777 0.093925-5.613829 0-15.988937-1.134326-22.375841-8.735031-4.963579-5.895604-6.430255-14.16101-4.501178-25.229718 2.398702-13.51076 19.543639-18.329838 34.795625-18.329838 7.961956 0 16.357412 1.271601 24.369943 3.706428 5.180329 1.538926 127.022818 39.188429 131.560121 165.098596C679.468398 510.280449 673.153743 536.218218 654.491554 536.218218z" p-id="15835" fill="#ff874B"></path><path d="M812.581895 437.08392c-6.097904-172.757102-173.212277-225.08059-180.350582-227.233641-12.159684-3.626953-25.092443-5.548804-37.389402-5.548804-38.169703 0-64.844422 17.274988-69.612926 44.997333-3.836478 21.617216-0.021675 39.455754 11.350483 53.017089 17.267763 20.59849 43.523432 21.07534 53.371114 20.25169 67.806675-3.540253 101.113949 60.191519 104.415776 71.029027 0.1156 1.011501 0.21675 2.326452 0.354025 3.887053l0.108375 1.293276c3.504128 41.54378 11.025358 81.87376 42.078431 95.550695 6.545855 2.839427 13.228985 4.277203 19.87599 4.277203 30.836323 0 48.920511-29.138446 55.018415-54.064715l0.910351-3.677528L812.581895 437.08392zM785.37975 438.037621c-0.33235 1.358301-8.402681 33.357849-28.596571 33.357849-2.890002 0-5.946179-0.686376-8.980682-2.001326-18.026388-7.947506-23.185042-41.31258-25.851069-72.914753l-0.1156-1.293276c-0.21675-2.557652-0.4046-4.624003-0.59245-6.011204l-0.195075-1.127101c-2.731052-12.181359-40.28663-92.855768-125.397192-92.855768-2.427602 0-4.876879 0.065025-7.37673 0.2023l-0.838101 0.065025c-0.484075 0.0289-1.394426 0.07225-2.557652 0.07225-6.89988 0-19.637564-1.387201-27.447795-10.707458-5.953404-7.10218-7.774106-17.455613-5.397079-30.850773 2.384252-13.864785 18.792239-22.469766 42.808156-22.469766 9.703182 0 19.93379 1.524476 29.571947 4.400028C630.764637 237.832724 779.968221 284.542383 785.37975 438.037621L785.37975 438.037621z" p-id="15836" fill="#ff874B"></path></svg>