<?xml version="1.0" standalone="no"?><!DOCTYPE svg PUBLIC "-//W3C//DTD SVG 1.1//EN" "http://www.w3.org/Graphics/SVG/1.1/DTD/svg11.dtd"><svg t="1552530439937" class="icon" style="" viewBox="0 0 1024 1024" version="1.1" xmlns="http://www.w3.org/2000/svg" p-id="1115" xmlns:xlink="http://www.w3.org/1999/xlink" width="64" height="64"><defs><style type="text/css"></style></defs><path d="M438.848 950.848l512 0 0-365.728-237.728 0q-22.848 0-38.848-16t-16-38.848l0-237.728-219.424 0 0 658.272zM585.152 128l0-36.576q0-7.424-5.44-12.864t-12.864-5.44l-402.272 0q-7.424 0-12.864 5.44t-5.44 12.864l0 36.576q0 7.424 5.44 12.864t12.864 5.44l402.272 0q7.424 0 12.864-5.44t5.44-12.864zM731.424 512l170.848 0-170.848-170.848 0 170.848zM1024 585.152l0 384q0 22.848-16 38.848t-38.848 16l-548.576 0q-22.848 0-38.848-16t-16-38.848l0-91.424-310.848 0q-22.848 0-38.848-16t-16-38.848l0-768q0-22.848 16-38.848t38.848-16l621.728 0q22.848 0 38.848 16t16 38.848l0 187.424q12 7.424 20.576 16l233.152 233.152q16 16 27.424 43.424t11.424 50.272z" p-id="1116" fill="#333333"></path></svg>