<?xml version="1.0" standalone="no"?><!DOCTYPE svg PUBLIC "-//W3C//DTD SVG 1.1//EN" "http://www.w3.org/Graphics/SVG/1.1/DTD/svg11.dtd"><svg t="1550646711326" class="icon" style="" viewBox="0 0 1024 1024" version="1.1" xmlns="http://www.w3.org/2000/svg" p-id="10211" xmlns:xlink="http://www.w3.org/1999/xlink" width="64" height="64"><defs><style type="text/css"></style></defs><path d="M1024 512c0-282.763636-229.236364-512-512-512C229.236364 0 0 229.236364 0 512c0 282.763636 229.236364 512 512 512C794.763636 1024 1024 794.763636 1024 512zM46.545455 512C46.545455 254.929455 254.929455 46.545455 512 46.545455c257.070545 0 465.454545 208.384 465.454545 465.454545s-208.384 465.454545-465.454545 465.454545C254.929455 977.454545 46.545455 769.070545 46.545455 512z" p-id="10212" fill="#666666"></path><path d="M594.292364 429.707636 265.122909 265.216l164.584727 329.076364 329.076364 164.584727L594.292364 429.707636zM467.083636 558.731636 340.759273 342.528l216.715636 124.369455L467.083636 558.731636z" p-id="10213" fill="#666666"></path></svg>