<?xml version="1.0" standalone="no"?><!DOCTYPE svg PUBLIC "-//W3C//DTD SVG 1.1//EN" "http://www.w3.org/Graphics/SVG/1.1/DTD/svg11.dtd"><svg t="1551178152448" class="icon" style="" viewBox="0 0 1024 1024" version="1.1" xmlns="http://www.w3.org/2000/svg" p-id="4488" xmlns:xlink="http://www.w3.org/1999/xlink" width="64" height="64"><defs><style type="text/css"></style></defs><path d="M274.3552 276.38272c-120.448 0-218.4448 98.97472-218.4448 220.62592 0 109.81376 156.23168 279.33184 187.13088 313.19552 30.8992 33.88416 30.8992 33.88416 62.70976-0.10752 31.25248-34.62144 187.05408-203.4944 187.05408-313.088-0.00512-121.6512-97.9968-220.62592-218.44992-220.62592z m-2.00192 330.02496c-59.52 0-107.94496-48.42496-107.94496-107.95008 0-59.50464 48.42496-107.9296 107.94496-107.9296s107.95008 48.42496 107.95008 107.9296c0 59.5456-48.42496 107.95008-107.95008 107.95008z m455.99744-125.99296c22.12864-24.51968 132.46464-144.11264 132.46464-221.7216 0-86.15424-69.39648-156.24704-154.69568-156.24704s-154.7008 70.08768-154.7008 156.24704c0 77.76768 110.63808 197.8112 132.52096 221.79328 21.87776 23.99232 21.87776 23.99232 44.41088-0.07168z m-100.10112-220.6976c0-42.1376 34.29376-76.43136 76.45184-76.43136 42.14784 0 76.44672 34.29376 76.44672 76.43136 0 42.16832-34.29376 76.44672-76.44672 76.44672-42.15808 0-76.45184-34.29376-76.45184-76.44672z m319.31904 411.44832c-15.70304-32.09728-48.0512-59.84256-96.128-82.47808-42.30144-19.91168-87.23968-31.232-110.26944-36.20352a290.4576 290.4576 0 0 0-8.40704-1.6384c-17.46432-3.23584-24.9344-5.99552-28.07296-10.28096-4.36224-5.93408-10.99776-9.7792-18.37056-9.7792h-1.97632c-18.34496 0-29.3632 20.43392-19.2256 35.72736 4.55168 6.85568 10.61376 12.68736 18.12992 17.36192 13.568 8.43264 28.71808 11.2384 40.89856 13.49632 2.56 0.47104 4.98176 0.9216 7.02976 1.36192 21.05856 4.55168 62.05952 14.85824 100.11136 32.768 37.57056 17.67936 63.0784 38.58944 73.78432 60.47232 9.0624 18.5088 8.05376 38.7584-3.06176 61.9008a44.99456 44.99456 0 0 1-4.96128 7.91552l-11.41248 14.78656-0.19456 0.26112c-11.8272 15.75936-61.66016 52.5824-140.24192 65.75104-46.75072 7.83872-97.01888 6.48704-149.41184-4.02944-57.94304-11.62752-118.59456-34.53952-180.5568-68.18816-10.94144-5.94432-24.63232-2.01728-30.85312 8.77056l-0.62976 1.09056c-6.4512 11.18208-2.47296 25.52832 8.86784 31.6928 66.14528 35.92704 131.27168 60.46208 193.85856 73.02656 33.12128 6.64064 65.57184 9.96864 97.08032 9.96864 23.7312 0 46.92992-1.88928 69.45792-5.66784 40.94976-6.86592 80.07168-20.25984 113.12128-38.72768 24.89856-13.91616 46.20288-30.78144 57.04192-45.15328l11.32032-14.67392a92.34432 92.34432 0 0 0 10.14784-16.32256c17.56672-36.56192 18.54464-71.28064 2.92352-103.20896z" p-id="4489" fill="#ff874b"></path></svg>