<?xml version="1.0" standalone="no"?><!DOCTYPE svg PUBLIC "-//W3C//DTD SVG 1.1//EN" "http://www.w3.org/Graphics/SVG/1.1/DTD/svg11.dtd"><svg t="1550819998518" class="icon" style="" viewBox="0 0 1024 1024" version="1.1" xmlns="http://www.w3.org/2000/svg" p-id="2461" xmlns:xlink="http://www.w3.org/1999/xlink" width="64" height="64"><defs><style type="text/css"></style></defs><path d="M917.333333 512a405.333333 405.333333 0 1 0-652.16 320c0 3.2 1.706667 6.4 2.56 9.386667l7.253334-1.92a402.986667 402.986667 0 0 0 481.066666-5.333334h2.56v-3.2A404.053333 404.053333 0 0 0 917.333333 512zM283.733333 820.053333A224.853333 224.853333 0 0 1 277.333333 768a234.666667 234.666667 0 1 1 469.333334 0 229.333333 229.333333 0 0 1-6.613334 52.266667 381.653333 381.653333 0 0 1-456.32 0z m170.666667-301.226666a128 128 0 1 1 115.84 0 248.96 248.96 0 0 0-115.84 0z m311.466667 280.533333A250.453333 250.453333 0 0 0 768 768a256 256 0 0 0-170.666667-240.853333 149.333333 149.333333 0 1 0-172.16 0A256 256 0 0 0 256 768a236.8 236.8 0 0 0 2.346667 31.786667 384 384 0 1 1 507.306666 0z" p-id="2462" fill="#ff874B"></path></svg>