<?xml version="1.0" standalone="no"?><!DOCTYPE svg PUBLIC "-//W3C//DTD SVG 1.1//EN" "http://www.w3.org/Graphics/SVG/1.1/DTD/svg11.dtd"><svg t="1550821032132" class="icon" style="" viewBox="0 0 1024 1024" version="1.1" xmlns="http://www.w3.org/2000/svg" p-id="3560" xmlns:xlink="http://www.w3.org/1999/xlink" width="64" height="64"><defs><style type="text/css"></style></defs><path d="M517.4 163.7c48.8 0 94.7 19 129.2 53.5s53.5 80.4 53.5 129.2-19 94.7-53.5 129.2S566.2 529 517.4 529s-94.7-19-129.2-53.5-53.5-80.4-53.5-129.2 19-94.7 53.5-129.2 80.4-53.4 129.2-53.4m0-64.2C381 99.5 270.5 210 270.5 346.4S381 593.3 517.4 593.3s246.9-110.5 246.9-246.9S653.8 99.5 517.4 99.5zM746.3 628C829 686.6 883 783 883 892" p-id="3561" fill="#ff874B"></path><path d="M883 924.1c-17.7 0-32.1-14.4-32.1-32.1 0-47.4-11.6-94.4-33.6-135.9-21.3-40.3-52.2-75.5-89.5-101.9-14.5-10.3-17.9-30.3-7.6-44.8 10.3-14.5 30.3-17.9 44.8-7.6 45.4 32.2 83.2 75.1 109.2 124.3 26.9 50.8 41 108.2 41 165.9-0.1 17.8-14.5 32.1-32.2 32.1zM126.2 924.1c-17.7 0-32.1-14.4-32.1-32.1 0-48 9.4-94.5 27.9-138.3 17.9-42.3 43.5-80.3 76.2-113 32.6-32.6 70.6-58.2 113-76.2 43.8-18.5 90.4-27.9 138.3-27.9h110.3c17.7 0 32.1 14.4 32.1 32.1s-14.4 32.1-32.1 32.1H449.4c-77.8 0-150.9 30.3-205.9 85.3S158.3 814.2 158.3 892c0 17.8-14.4 32.1-32.1 32.1z" p-id="3562" fill="#ff874B"></path></svg>