<?xml version="1.0" standalone="no"?><!DOCTYPE svg PUBLIC "-//W3C//DTD SVG 1.1//EN" "http://www.w3.org/Graphics/SVG/1.1/DTD/svg11.dtd"><svg t="1550646798394" class="icon" style="" viewBox="0 0 1024 1024" version="1.1" xmlns="http://www.w3.org/2000/svg" p-id="11045" xmlns:xlink="http://www.w3.org/1999/xlink" width="64" height="64"><defs><style type="text/css"></style></defs><path d="M512 256C476.8 256 448 284.8 448 320l0 192c0 35.2 28.8 64 64 64s64-28.8 64-64L576 320C576 284.8 547.2 256 512 256zM512 64C264.32 64 64 264.32 64 512s200.32 448 448 448 448-200.32 448-448S759.04 64 512 64zM512 896c-211.84 0-384-172.16-384-384s172.16-384 384-384 384 172.16 384 384S723.84 896 512 896zM512 640c-35.2 0-64 28.8-64 64s28.8 64 64 64 64-28.8 64-64S547.2 640 512 640z" p-id="11046" fill="#ffffff"></path></svg>